<?xml version="1.0" standalone="no"?>
<!DOCTYPE svg PUBLIC "-//W3C//DTD SVG 20010904//EN"
 "http://www.w3.org/TR/2001/REC-SVG-20010904/DTD/svg10.dtd">
<svg version="1.0" xmlns="http://www.w3.org/2000/svg"
 width="250.000000pt" height="250.000000pt" viewBox="0 0 250.000000 250.000000"
 preserveAspectRatio="xMidYMid meet">
<metadata>
Created by potrace 1.11, written by Peter Selinger 2001-2013
</metadata>
<g transform="translate(0.000000,250.000000) scale(0.100000,-0.100000)"
fill="#000000" stroke="none">
<path d="M1214 2337 c-27 -23 -27 -24 -29 -173 -1 -114 2 -157 13 -182 25 -55
88 -65 129 -20 16 17 18 41 20 181 l1 160 -28 29 c-35 34 -70 36 -106 5z"/>
<path d="M1633 2258 c-25 -12 -20 -1 -84 -181 -40 -114 -47 -142 -38 -164 21
-56 88 -72 127 -30 27 28 122 300 115 328 -7 26 -50 59 -77 58 -11 0 -31 -5
-43 -11z"/>
<path d="M1935 2058 c-42 -32 -185 -254 -185 -285 1 -48 46 -87 91 -78 32 6
55 32 143 163 60 90 75 119 72 143 -7 62 -74 94 -121 57z"/>
<path d="M782 1854 c-285 -48 -550 -227 -676 -458 -15 -26 -39 -83 -53 -125
-23 -65 -27 -93 -27 -196 0 -105 3 -129 26 -194 42 -115 91 -187 209 -302 91
-88 107 -109 102 -128 -5 -22 -31 -48 -155 -164 -53 -49 -60 -77 -24 -100 70
-47 186 -19 396 93 l95 51 90 -6 c50 -4 109 -10 132 -14 66 -13 281 -5 364 13
223 48 395 139 522 275 168 182 229 390 184 624 -35 177 -161 344 -358 475
-120 79 -243 127 -379 147 -20 3 -47 8 -60 11 -48 11 -318 10 -388 -2z"/>
<path d="M2235 1770 c-25 -10 -210 -126 -248 -156 -32 -26 -39 -59 -21 -96 28
-55 72 -57 155 -7 30 18 56 36 59 39 3 3 28 19 55 35 104 60 132 117 81 166
-26 25 -51 31 -81 19z"/>
<path d="M2347 1394 c-1 -1 -27 -5 -57 -8 -177 -19 -206 -30 -216 -81 -5 -29
-2 -43 13 -63 19 -25 25 -27 94 -26 41 1 88 4 104 7 17 3 57 8 90 12 68 8 102
25 115 61 11 28 -2 71 -28 91 -14 10 -105 16 -115 7z"/>
</g>
</svg>
